<svg width="64" height="64" viewBox="0 0 64 64" fill="none"
     xmlns="http://www.w3.org/2000/svg">
  <path d="M32 4C32 4 19 18 19 30C19 36 24 42 32 42C40 42 45 36 45 30C45 18 32 4 32 4Z"
        fill="url(#grad1)"/>
  <path d="M32 60C45 60 56 49 56 36C56 26 49 18 41 14C40 13 36 12 36.5 16C37 20 32 26 26.5 26C21 26 18 20 18 16C18 12 14 15 13 16C7 21.5 6 27 6 36C6 49 17 60 32 60Z"
        fill="url(#grad2)" />
  <defs>
    <linearGradient id="grad1" x1="19" y1="4" x2="45" y2="42">
      <stop offset="0%" stop-color="#FFD46A"/>
      <stop offset="100%" stop-color="#FFB631"/>
    </linearGradient>
    <linearGradient id="grad2" x1="6" y1="14" x2="56" y2="60">
      <stop offset="0%" stop-color="#FFE07A"/>
      <stop offset="100%" stop-color="#FF9A00"/>
    </linearGradient>
  </defs>
</svg>
